<svg width="25" height="24" viewBox="0 0 25 24" fill="none" xmlns="http://www.w3.org/2000/svg">
<path d="M9.33357 20.0001C6.35696 19.9829 3.89478 13.9067 3.89478 10.8122C3.89478 5.75735 7.68677 4.65071 9.14818 4.65071C9.80677 4.65071 10.51 4.90934 11.1303 5.13821C11.564 5.29786 12.0126 5.46266 12.2621 5.46266C12.4115 5.46266 12.7634 5.32247 13.0741 5.19946C13.7367 4.93567 14.5612 4.60782 15.5214 4.60782C15.5231 4.60782 15.5254 4.60782 15.5271 4.60782C16.244 4.60782 18.4179 4.76516 19.7248 6.72782L20.0309 7.18786L19.5903 7.52032C18.9609 7.99524 17.8125 8.86157 17.8125 10.5776C17.8125 12.6101 19.1131 13.3917 19.7379 13.7677C20.0138 13.9336 20.2993 14.1047 20.2993 14.4789C20.2993 14.7232 18.3492 19.9698 15.5174 19.9698C14.8244 19.9698 14.3346 19.7615 13.9026 19.5778C13.4654 19.3918 13.0883 19.2316 12.4652 19.2316C12.1493 19.2316 11.7499 19.381 11.3271 19.5395C10.7492 19.7552 10.0952 20.0001 9.35302 20.0001H9.33357Z" fill="white"/>
<path d="M15.8215 0C15.8952 2.65922 13.9935 4.50406 12.0939 4.38836C11.7809 2.26621 13.9932 0 15.8215 0Z" fill="white"/>
</svg>
