<svg width="21" height="20" viewBox="0 0 21 20" fill="none" xmlns="http://www.w3.org/2000/svg">
<path d="M19.4029 10.1652C19.4029 9.42694 19.3416 8.8882 19.2089 8.32951H10.5819V11.6617H15.6458C15.5437 12.4898 14.9924 13.7369 13.7672 14.5749L13.7501 14.6864L16.4778 16.7514L16.6667 16.7698C18.4023 15.2034 19.4029 12.8988 19.4029 10.1652Z" fill="#4285F4"/>
<path d="M10.582 18.9449C13.0629 18.9449 15.1456 18.1467 16.6668 16.77L13.7673 14.575C12.9914 15.1038 11.95 15.4729 10.582 15.4729C8.15215 15.4729 6.08985 13.9066 5.35469 11.7417L5.24694 11.7506L2.41063 13.8956L2.37354 13.9964C3.88453 16.9295 6.98822 18.9449 10.582 18.9449Z" fill="#34A853"/>
<path d="M5.35454 11.7415C5.16057 11.1828 5.04831 10.5842 5.04831 9.96567C5.04831 9.34708 5.16057 8.7485 5.34434 8.18981L5.3392 8.07082L2.46736 5.89137L2.3734 5.93505C1.75065 7.15222 1.39331 8.51905 1.39331 9.96567C1.39331 11.4123 1.75065 12.779 2.3734 13.9962L5.35454 11.7415Z" fill="#FBBC05"/>
<path d="M10.582 4.45856C12.3073 4.45856 13.4712 5.18685 14.1348 5.79547L16.728 3.32124C15.1354 1.87462 13.0628 0.986694 10.582 0.986694C6.9882 0.986694 3.88452 3.00197 2.37354 5.93509L5.34448 8.18986C6.08983 6.02492 8.15213 4.45856 10.582 4.45856Z" fill="#EB4335"/>
</svg>
